<svg xmlns="http://www.w3.org/2000/svg" width="1024" height="1024" viewBox="0 0 1024 1024">
<g>
<path d="M 135.00 860.00 L 135.00 831.00 L 164.00 831.00 L 193.00 831.00 L 193.00 802.00 L 193.00 773.00 L 164.00 773.00 L 135.00 773.00 L 135.00 744.00 L 135.00 715.00 L 163.98 715.00 L 192.97 715.00 L 193.23 743.75 L 193.50 772.50 L 222.25 772.77 L 251.00 773.03 L 251.00 802.02 L 251.00 831.00 L 222.00 831.00 L 193.00 831.00 L 193.00 860.00 L 193.00 889.00 L 164.00 889.00 L 135.00 889.00 L 135.00 860.00 ZM 309.00 860.00 L 309.00 831.00 L 338.00 831.00 L 367.00 831.00 L 367.00 802.00 L 367.00 773.00 L 396.00 773.00 L 425.00 773.00 L 425.00 744.00 L 425.00 715.00 L 454.00 715.00 L 483.00 715.00 L 483.00 744.00 L 483.00 773.00 L 454.00 773.00 L 425.00 773.00 L 425.00 801.98 L 425.00 830.97 L 396.25 831.23 L 367.50 831.50 L 367.23 860.25 L 366.97 889.00 L 337.98 889.00 L 309.00 889.00 L 309.00 860.00 ZM 598.77 860.25 L 598.50 831.50 L 569.75 831.23 L 541.00 830.97 L 541.00 802.00 L 541.00 773.03 L 569.75 772.77 L 598.50 772.50 L 598.77 743.75 L 599.03 715.00 L 628.02 715.00 L 657.00 715.00 L 657.00 744.00 L 657.00 773.00 L 628.00 773.00 L 599.00 773.00 L 599.00 802.00 L 599.00 831.00 L 628.00 831.00 L 657.00 831.00 L 657.00 860.00 L 657.00 889.00 L 628.02 889.00 L 599.03 889.00 L 598.77 860.25 ZM 715.00 802.00 L 715.00 715.00 L 802.00 715.00 L 889.00 715.00 L 889.00 802.00 L 889.00 889.00 L 802.00 889.00 L 715.00 889.00 L 715.00 802.00 ZM 831.00 802.00 L 831.00 773.00 L 802.00 773.00 L 773.00 773.00 L 773.00 802.00 L 773.00 831.00 L 802.00 831.00 L 831.00 831.00 L 831.00 802.00 ZM 135.00 628.00 L 135.00 599.00 L 164.00 599.00 L 193.00 599.00 L 193.00 628.00 L 193.00 657.00 L 164.00 657.00 L 135.00 657.00 L 135.00 628.00 ZM 251.00 512.00 L 251.00 367.00 L 338.00 367.00 L 425.00 367.00 L 425.00 396.00 L 425.00 425.00 L 454.00 425.00 L 483.00 425.00 L 483.00 512.00 L 483.00 599.00 L 454.00 599.00 L 425.00 599.00 L 425.00 628.00 L 425.00 657.00 L 338.00 657.00 L 251.00 657.00 L 251.00 512.00 ZM 425.00 512.00 L 425.00 425.00 L 367.00 425.00 L 309.00 425.00 L 309.00 512.00 L 309.00 599.00 L 367.00 599.00 L 425.00 599.00 L 425.00 512.00 ZM 599.00 628.00 L 599.00 599.00 L 570.00 599.00 L 541.00 599.00 L 541.00 512.00 L 541.00 425.00 L 570.00 425.00 L 599.00 425.00 L 599.00 396.00 L 599.00 367.00 L 657.00 367.00 L 715.00 367.00 L 715.00 396.00 L 715.00 425.00 L 744.00 425.00 L 773.00 425.00 L 773.00 454.00 L 773.00 483.00 L 744.02 483.00 L 715.03 483.00 L 714.77 454.25 L 714.50 425.50 L 656.75 425.24 L 599.00 424.98 L 599.00 511.99 L 599.00 599.00 L 686.00 599.00 L 773.00 599.00 L 773.00 628.00 L 773.00 657.00 L 686.00 657.00 L 599.00 657.00 L 599.00 628.00 ZM 831.00 512.00 L 831.00 367.00 L 802.00 367.00 L 773.00 367.00 L 773.00 338.00 L 773.00 309.00 L 570.00 309.00 L 367.00 309.00 L 367.00 280.00 L 367.00 251.00 L 570.00 251.00 L 773.00 251.00 L 773.00 280.00 L 773.00 309.00 L 802.00 309.00 L 831.00 309.00 L 831.00 222.00 L 831.00 135.00 L 860.00 135.00 L 889.00 135.00 L 889.00 221.98 L 889.00 308.97 L 860.25 309.23 L 831.50 309.50 L 831.23 338.25 L 830.97 367.00 L 859.98 367.00 L 889.00 367.00 L 889.00 512.00 L 889.00 657.00 L 860.00 657.00 L 831.00 657.00 L 831.00 512.00 ZM 135.00 454.00 L 135.00 367.00 L 164.00 367.00 L 193.00 367.00 L 193.00 454.00 L 193.00 541.00 L 164.00 541.00 L 135.00 541.00 L 135.00 454.00 ZM 135.00 222.00 L 135.00 135.00 L 222.00 135.00 L 309.00 135.00 L 309.00 222.00 L 309.00 309.00 L 222.00 309.00 L 135.00 309.00 L 135.00 222.00 ZM 251.00 222.00 L 251.00 193.00 L 222.00 193.00 L 193.00 193.00 L 193.00 222.00 L 193.00 251.00 L 222.00 251.00 L 251.00 251.00 L 251.00 222.00 ZM 367.00 164.00 L 367.00 135.00 L 396.00 135.00 L 425.00 135.00 L 425.00 164.00 L 425.00 193.00 L 396.00 193.00 L 367.00 193.00 L 367.00 164.00 ZM 483.00 164.00 L 483.00 135.00 L 570.00 135.00 L 657.00 135.00 L 657.00 164.00 L 657.00 193.00 L 570.00 193.00 L 483.00 193.00 L 483.00 164.00 ZM 715.00 164.00 L 715.00 135.00 L 744.00 135.00 L 773.00 135.00 L 773.00 164.00 L 773.00 193.00 L 744.00 193.00 L 715.00 193.00 L 715.00 164.00 Z" fill="#ffffff"/>
</g>
</svg>
